<svg id="Flat" enable-background="new 0 0 64 64" height="512" viewBox="0 0 64 64" width="512" xmlns="http://www.w3.org/2000/svg"><path d="m3 29 5-4h48l5 4-23 32h-12z" fill="#454a6d"/><path d="m46 48-11 8h-6l-11-8v-18h28z" fill="#eae8e5"/><path d="m52 30h-40v-1c0-2.209 1.791-4 4-4h32c2.209 0 4 1.791 4 4z" fill="#e08831"/><path d="m18 4h28v21h-28z" fill="#e89d43"/><g fill="#454a6d"><path d="m33 16h-2v-2.414l2.964-2.964c-.177-.923-.99-1.622-1.964-1.622h-1c-1.103 0-2 .897-2 2h-2c0-2.206 1.794-4 4-4h1c2.206 0 4 1.794 4 4v.414l-3 3z"/><path d="m31 18h2v2h-2z"/><path d="m18 20h11v2h-11z"/><path d="m35 20h11v2h-11z"/><path d="m22 30h8v6h-8z"/><path d="m34 30h8v6h-8z"/></g><path d="m38 61v-16l23-16v7l-7 18 7 4v3z" fill="#4ac3ed"/><path d="m26 61v-16l-23-16v7l7 18-7 4v3z" fill="#4ac3ed"/></svg>